<svg xmlns="http://www.w3.org/2000/svg" viewBox="0 0 87.83 69.89"><defs><style>.cls-1{fill:#fff;}</style></defs><title>logo-m-w</title><g id="Layer_2" data-name="Layer 2"><g id="Calque_1" data-name="Calque 1"><line class="cls-1" x1="73.76" y1="52.75" x2="73.76" y2="52.75"/><path class="cls-1" d="M30.22,18.35c-.17,1.11-.33,2.49-.5,4.13S29.36,26,29.13,28s-.41,3.76-.58,5.26q-2.09,16.29,4.68,16.29l3.26-5.34a148.39,148.39,0,0,1,9-13.12,98.71,98.71,0,0,1,11-12.62q-2.09,4.09-4.34,8.77Q44.83,42.44,44,47.69h0S41.47,56.06,50,59h0s2.9,1.14,3.62.07h0v0a.9.9,0,0,0,.12-.3h0a14.57,14.57,0,0,0,.36-1.92q1.34-11.87,8.77-29.91C65.37,20.89,69,12.58,73.69,2,74.26.73,71.19.78,71.19.78q-9-.21-12,2.53Q57.13,5.23,48.44,15.72T36.65,30.38c.23-4.07.64-8.61,1.26-13.62Q39.07,7.52,40.5,1.05h0s0,0,0,0c.18-1.22-2.77-1-3.52-1l-.59,0a15.43,15.43,0,0,0-3.59.79A5,5,0,0,0,30,3c-.22.34-.77,1.12-1.63,2.34S26.59,7.83,25.67,9.2,23.52,12.51,22,15.05s-3.11,5.25-4.72,8.14v0q-2.13,3.9-4.37,8.31Q6.46,44.07,3.21,51.38A54.45,54.45,0,0,0,.62,58.16h0C-2.52,66.34,7.24,69.5,7.86,69.69a4.46,4.46,0,0,0,1.57.2,1.27,1.27,0,0,0,1.2-.71,16.59,16.59,0,0,0,.8-3c.31-1.56.76-3.47,1.35-5.75s1.7-5.72,3.35-10.34,3.72-9.76,6.18-15.41c.23-.5.44-1,.66-1.48,1-2.11,2-4.3,3.16-6.65Q28.29,22.1,30.22,18.35Z"/><path class="cls-1" d="M70.57,48.77a4,4,0,0,0,1.64-1.44,3.67,3.67,0,0,0,.62-2v-.41a4.24,4.24,0,0,0-2.55-4,7.26,7.26,0,0,0-5.64,0,4.36,4.36,0,0,0-1.88,1.6,4.41,4.41,0,0,0-.67,2.41v.41a3.7,3.7,0,0,0,.61,2,4,4,0,0,0,1.61,1.46A4.71,4.71,0,0,0,61.7,53v.28a4.61,4.61,0,0,0,.71,2.55,4.69,4.69,0,0,0,2,1.69,8,8,0,0,0,6.06,0,4.63,4.63,0,0,0,2-1.69,4.53,4.53,0,0,0,.71-2.55V53a4.51,4.51,0,0,0-.72-2.45A4.76,4.76,0,0,0,70.57,48.77Zm-5.81-3.63a2.46,2.46,0,0,1,.34-1.31,2.29,2.29,0,0,1,1-.87,3.46,3.46,0,0,1,2.82,0,2.38,2.38,0,0,1,1,.87,2.53,2.53,0,0,1,.34,1.29v.17a2.77,2.77,0,0,1-.34,1.36,2.32,2.32,0,0,1-1,.9,3.27,3.27,0,0,1-2.82,0,2.23,2.23,0,0,1-1-.9,2.56,2.56,0,0,1-.34-1.33Zm5.81,7.92A2.47,2.47,0,0,1,69.1,55.4a3.84,3.84,0,0,1-1.64.33,3.8,3.8,0,0,1-1.63-.33,2.47,2.47,0,0,1-1.09-.92,2.51,2.51,0,0,1-.39-1.39v-.18a2.53,2.53,0,0,1,1.48-2.36,3.8,3.8,0,0,1,1.63-.34,3.84,3.84,0,0,1,1.64.34,2.58,2.58,0,0,1,1.09.94,2.61,2.61,0,0,1,.38,1.41Z"/><path class="cls-1" d="M85.4,41a5.92,5.92,0,0,0-2.86-.64,6.2,6.2,0,0,0-2.87.62,4.19,4.19,0,0,0-1.81,1.82,6.14,6.14,0,0,0-.63,2.89h0a6,6,0,0,0,.57,2.68,4.28,4.28,0,0,0,1.6,1.79,4.51,4.51,0,0,0,2.39.63,4.33,4.33,0,0,0,1.56-.25,2.27,2.27,0,0,0,.44-.23L79.57,58h2.88l4-7.46a3.18,3.18,0,0,0,.16-.32c.06-.1.11-.21.16-.31a12.59,12.59,0,0,0,.75-2.1,8.65,8.65,0,0,0,.26-2h0a6.38,6.38,0,0,0-.62-2.91A4.23,4.23,0,0,0,85.4,41Zm-.24,4.61a3.24,3.24,0,0,1-.68,2.19,2.83,2.83,0,0,1-3.9,0,3.2,3.2,0,0,1-.68-2.18h0a3.13,3.13,0,0,1,.68-2.15,2.91,2.91,0,0,1,3.9,0,3.11,3.11,0,0,1,.68,2.13Z"/></g></g></svg>