<svg xmlns="http://www.w3.org/2000/svg" viewBox="0 0 188.6 79.91"><defs><style>.cls-1{fill:#fff;}</style></defs><title>logo-full-w</title><g id="Layer_2" data-name="Layer 2"><g id="Calque_1" data-name="Calque 1"><path class="cls-1" d="M30.66,18.61q-.26,1.7-.51,4.2t-.6,5.55c-.22,2-.42,3.81-.59,5.34q-2.12,16.53,4.75,16.53L37,44.8a154.81,154.81,0,0,1,9.16-13.31A99.32,99.32,0,0,1,57.35,18.7q-2.12,4.15-4.4,8.9-7.47,15.45-8.36,20.77h0s-2.53,8.5,6.14,11.44h0s2.94,1.16,3.67.07h0s0,0,0,0a.77.77,0,0,0,.12-.31h0a14.3,14.3,0,0,0,.37-1.94q1.35-12,8.9-30.34,3.77-9.1,11-25.23C75.32.74,72.21.79,72.21.79Q63.08.58,60.07,3.36q-2.13,2-10.94,12.58t-12,14.88q.34-6.19,1.27-13.82,1.17-9.37,2.64-15.93h0s0,0,0,0c.18-1.24-2.81-1-3.57-1l-.59,0A16,16,0,0,0,33.28.9,5,5,0,0,0,30.4,3L28.75,5.39C27.87,6.63,27,8,26,9.33s-2.18,3.36-3.73,5.93-3.15,5.33-4.79,8.27v0Q15.36,27.52,13.08,32,6.57,44.71,3.26,52.12A55.13,55.13,0,0,0,.63,59h0C-2.56,67.29,7.35,70.5,8,70.7a4.82,4.82,0,0,0,1.59.2,1.32,1.32,0,0,0,1.22-.72,16,16,0,0,0,.81-3.05c.32-1.59.78-3.53,1.37-5.84s1.72-5.8,3.41-10.49,3.76-9.9,6.26-15.63l.67-1.51c1-2.13,2.05-4.36,3.2-6.74Q28.71,22.42,30.66,18.61Z"/><polygon class="cls-1" points="92.11 63.74 92.11 66.3 94.85 64.76 94.85 79.73 97.55 79.73 97.55 62.06 94.85 62.06 92.11 63.74"/><path class="cls-1" d="M170.62,62.62a6.06,6.06,0,0,0-2.9-.65,6.13,6.13,0,0,0-2.91.64A4.25,4.25,0,0,0,163,64.45a6.31,6.31,0,0,0-.63,2.93h0a6,6,0,0,0,.58,2.72,4.26,4.26,0,0,0,1.62,1.81,4.55,4.55,0,0,0,2.43.65,4.21,4.21,0,0,0,1.58-.27,2.38,2.38,0,0,0,.45-.23l-4.29,7.75h2.92l4.11-7.57a3.24,3.24,0,0,0,.17-.32,3.18,3.18,0,0,1,.16-.32,11.86,11.86,0,0,0,.75-2.14,8.27,8.27,0,0,0,.27-2h0a6.39,6.39,0,0,0-.63-3A4.26,4.26,0,0,0,170.62,62.62Zm-.24,4.67a3.29,3.29,0,0,1-.69,2.23,2.5,2.5,0,0,1-2,.79,2.48,2.48,0,0,1-2-.79,3.23,3.23,0,0,1-.69-2.21v0a3.14,3.14,0,0,1,.69-2.17,2.92,2.92,0,0,1,3.95,0,3.11,3.11,0,0,1,.69,2.16Z"/><path class="cls-1" d="M144.31,70.46A4.1,4.1,0,0,0,146,69a3.66,3.66,0,0,0,.63-2v-.43A4.32,4.32,0,0,0,144,62.46a7.34,7.34,0,0,0-5.72,0,4.29,4.29,0,0,0-2.58,4.06V67a3.7,3.7,0,0,0,.61,2A4,4,0,0,0,138,70.46a4.79,4.79,0,0,0-2.65,4.25V75a4.63,4.63,0,0,0,.72,2.58,4.71,4.71,0,0,0,2.05,1.72,8.06,8.06,0,0,0,6.15,0A4.57,4.57,0,0,0,147,75v-.29a4.55,4.55,0,0,0-.74-2.48A4.75,4.75,0,0,0,144.31,70.46Zm-5.9-3.68a2.53,2.53,0,0,1,.34-1.33,2.36,2.36,0,0,1,1-.88,3.45,3.45,0,0,1,2.86,0,2.3,2.3,0,0,1,1,.88,2.5,2.5,0,0,1,.34,1.32v.17a2.7,2.7,0,0,1-.34,1.37,2.33,2.33,0,0,1-1,.92,3.36,3.36,0,0,1-2.86,0,2.39,2.39,0,0,1-1-.92,2.6,2.6,0,0,1-.34-1.35Zm5.9,8a2.55,2.55,0,0,1-.39,1.41,2.67,2.67,0,0,1-1.11,1,3.93,3.93,0,0,1-1.66.34,3.71,3.71,0,0,1-1.65-.34,2.47,2.47,0,0,1-1.5-2.35v-.18a2.53,2.53,0,0,1,1.5-2.39,3.71,3.71,0,0,1,1.65-.34,3.79,3.79,0,0,1,1.66.34,2.65,2.65,0,0,1,1.11,1,2.62,2.62,0,0,1,.39,1.43Z"/><path class="cls-1" d="M119.64,62.62a6.86,6.86,0,0,0-5.81,0A4.22,4.22,0,0,0,112,64.45a6.43,6.43,0,0,0-.62,2.93h0a6.18,6.18,0,0,0,.57,2.72,4.39,4.39,0,0,0,1.62,1.81,4.55,4.55,0,0,0,2.43.65,4.18,4.18,0,0,0,1.58-.27,1.9,1.9,0,0,0,.45-.23l-4.28,7.75h2.91l4.11-7.57a3.24,3.24,0,0,0,.17-.32c0-.11.11-.22.16-.32a11.91,11.91,0,0,0,.76-2.14,8.75,8.75,0,0,0,.26-2h0a6.39,6.39,0,0,0-.63-3A4.29,4.29,0,0,0,119.64,62.62Zm-.24,4.67a3.24,3.24,0,0,1-.7,2.23,2.86,2.86,0,0,1-4,0,3.23,3.23,0,0,1-.69-2.21v0a3.14,3.14,0,0,1,.69-2.17,2.56,2.56,0,0,1,2-.77,2.52,2.52,0,0,1,2,.77,3.07,3.07,0,0,1,.7,2.16Z"/><path class="cls-1" d="M188.26,30A5.93,5.93,0,0,0,187,29c-.71,1.41-1.41,2.83-2.12,4.24a71.45,71.45,0,0,1-5.06,8.51c-.48.69-.93,1.34-1.44,2s-1,1.3-1.55,1.92a15,15,0,0,1-3.73,3.23,1.08,1.08,0,0,1-.51-.67,2.55,2.55,0,0,1-.11-.55,5.3,5.3,0,0,1,0-.69c0-.32,0-.63.1-1s.14-.76.23-1.13a37.69,37.69,0,0,1,1.24-4c.91-2.55,2.11-5.35,3.21-7.82q2.55-5.25,5.09-10.51l-1-.64a12.14,12.14,0,0,0-1.91-1,15.68,15.68,0,0,0-1.6-.64,7.79,7.79,0,0,0-1.24-.32q-.3,0-.6-.06a3,3,0,0,0-.67,0,3,3,0,0,0-1.19.44,5.57,5.57,0,0,0-1.67,1.91l-.84-.59a7.6,7.6,0,0,0-.72-.43c-.32-.16-.64-.3-1-.44l-.57-.22c-.21-.08-.41-.16-.62-.22a11.38,11.38,0,0,0-1.27-.35,10,10,0,0,0-1.63-.2,7.89,7.89,0,0,0-1.19,0,8.79,8.79,0,0,0-1.61.3,12.68,12.68,0,0,0-2,.75,18,18,0,0,0-2,1.18c-.6.41-1.22.88-1.78,1.33s-1.16,1-1.71,1.48a32.42,32.42,0,0,0-3.05,3.26c-.5.6-.92,1.15-1.37,1.78s-.86,1.22-1.26,1.84a43.83,43.83,0,0,0-2.27,3.86c-.38.73-.74,1.48-1.08,2.23-.1.21-.19.42-.28.63-.17.4-.34.8-.49,1.21-.6.84-1.22,1.68-1.85,2.5-.31.41-.63.83-1,1.23s-.65.82-1,1.21a17.89,17.89,0,0,1-4.59,4.16l-.17-1.19a5.28,5.28,0,0,1,0-.55c0-.24.09-.47.14-.71s.15-.59.24-.88.21-.69.33-1,.33-.95.5-1.43.42-1.1.64-1.65c.4-1,.82-2,1.24-3s.85-2,1.28-3c.81-1.9,1.79-4.13,2.67-6,.25-.51.49-1,.74-1.54l.67-1.42c.48-1,1-2,1.42-3l-.42-.34-.61-.48-.74-.53c-.27-.19-.55-.37-.83-.55s-.63-.4-.9-.55-.56-.3-.85-.43-.63-.27-.93-.37a6.2,6.2,0,0,0-.87-.24l-.39-.05h-.33l-.16,0a1.82,1.82,0,0,0-.55.2,4.79,4.79,0,0,0-.68.42c-.29.2-.56.42-.83.64s-.65.58-1,.87-.82.8-1.21,1.21-.94,1-1.39,1.48c-3.08,3.37-6.74,7.93-9.54,11.52l5.59-12.46-.76-.59a9.52,9.52,0,0,0-1-.56l-.6-.28c-.21-.1-.43-.19-.65-.27a6.52,6.52,0,0,0-1.2-.34,3.57,3.57,0,0,0-.56-.07h-.27a1.08,1.08,0,0,0-.4.11l-.38.23a4.82,4.82,0,0,0-.43.36c-.17.16-.32.32-.48.49s-.36.4-.53.61-.48.6-.72.9-.53.73-.78,1.1c-.9,1.28-1.9,2.86-2.71,4.19s-1.71,2.86-2.52,4.32c-.49.57-1,1.14-1.44,1.73l-.18.22c-1,1.18-2.21,2.58-3.23,3.74-.55.62-1.1,1.24-1.66,1.84s-1.13,1.2-1.71,1.79c-1.2,1.24-2.28,2.28-3.59,3.41l-1,.81c-.3.25-.64.51-1,.75s-.71.52-1.09.76a8.09,8.09,0,0,1-1,.56,2.28,2.28,0,0,1-3.38-1.61A29,29,0,0,1,98,40.58a18.75,18.75,0,0,1,2.13,1.63l.38.28,0,0h0a3.9,3.9,0,0,0,.35.19,7.61,7.61,0,0,0,.88.39,4,4,0,0,0,1.87.26,3.6,3.6,0,0,0,.44-.12,4.37,4.37,0,0,0,.46-.18,5.19,5.19,0,0,0,.81-.5,9,9,0,0,0,1.4-1.29c.41-.41.79-.84,1.17-1.27s.73-.89,1.09-1.34.69-.92,1-1.39.65-1,1-1.43.61-1,.9-1.48.56-1,.83-1.51.51-1,.73-1.56c.08-.19.16-.37.23-.56s.12-.31.17-.46.14-.4.19-.6a15.43,15.43,0,0,0,.68-5.18A5,5,0,0,0,111.87,20a7.85,7.85,0,0,0-2.69-.77,9.74,9.74,0,0,0-2.8.1,4.54,4.54,0,0,0-.53.12c-.22.06-.43.13-.64.21a9.26,9.26,0,0,0-1.34.66,16.24,16.24,0,0,0-2.19,1.58,26.73,26.73,0,0,0-2,1.86q-.95,1-1.8,2a41.46,41.46,0,0,0-3.17,4.39,37.75,37.75,0,0,0-2.53,4.79c-.9,1.06-1.79,2.13-2.69,3.2A83.88,83.88,0,0,1,83,45.08c.64-1.17,1.22-2.36,1.76-3.58.16-.36.33-.71.5-1.07.6-1.24,1.15-2.5,1.63-3.79.24-.64.47-1.29.67-2s.39-1.32.55-2,.29-1.35.4-2a15.49,15.49,0,0,0,.23-2.05,13.13,13.13,0,0,0-.38-4.09,6.73,6.73,0,0,0-1.3-2.32,9.29,9.29,0,0,0-2-1.76,7.58,7.58,0,0,0-4.46-1.21l-1.56.23c-.4.09-.79.18-1.17.3a4.27,4.27,0,0,0-.54.18c-.14.06-.26.11-.39.18a13.17,13.17,0,0,0-1.41.81q-.63.4-1.23.87c-.3.23-.58.46-.87.7l-.65.57c-.29.26-.57.53-.83.81s-.76.86-1,1.19-.66.81-1,1.22c-.65.83-1.26,1.68-1.85,2.54S67,30.59,66.42,31.49s-1,1.82-1.51,2.76-.9,1.89-1.28,2.86c-1.1,3.33-2,7.48-1.52,11.09a9.3,9.3,0,0,0,2.21,5.09l.28.3.11.1.38.34a13.45,13.45,0,0,0,1.13.86,5.49,5.49,0,0,0,1.09.53l.56.19.5.12.81.19.72.15c.15,0,.3.07.45.09a5.77,5.77,0,0,0,.58.08,10,10,0,0,0,1.64,0,12.66,12.66,0,0,0,2.19-.36,16.81,16.81,0,0,0,2.39-.81,21.12,21.12,0,0,0,2.75-1.44,36.33,36.33,0,0,0,8.35-7.53l1.65-2c-.06.65-.09,1.31-.11,2,0,.49.1,1,.19,1.48,0,.2.08.41.13.61s.06.26.1.39a3.22,3.22,0,0,0,.14.44A7.49,7.49,0,0,0,91,50.39a10.34,10.34,0,0,0,.82,1.25,10.19,10.19,0,0,0,2.11,2.09,11.84,11.84,0,0,0,2.6,1.45,9.12,9.12,0,0,0,2.14.42,5.61,5.61,0,0,0,2.15-.31,9.37,9.37,0,0,0,1.95-1A19.88,19.88,0,0,0,104.52,53c1.12-.87,2.27-1.9,3.29-2.87s2-2,3-3.16l1.36-1.52c-.12.51-.23,1-.35,1.52-.24,1.05-.45,2.1-.63,3.17l.07.09c.88,1.74,2.62,4.54,4.91,5a2.11,2.11,0,0,0,.74.14,2.37,2.37,0,0,0,.75-.09,2.49,2.49,0,0,0,.67-.34,3.38,3.38,0,0,0,.54-.53,6.76,6.76,0,0,0,.44-.61c.14-.21.27-.43.4-.64.26-.43.52-.86.77-1.3s.59-1,.89-1.56l.9-1.55c.6-1,1.23-2,1.89-3,2.86-4.6,6.13-9.18,9.41-13.47l-.25.59c-.11.21-.21.43-.3.65s-.26.59-.38.88c-.21.52-.41,1-.62,1.55s-.41,1-.6,1.57-.38,1.05-.56,1.57c-.32,1-.74,2.24-1,3.2-.15.54-.29,1.08-.4,1.62a11.69,11.69,0,0,0-.26,1.66h0a.68.68,0,0,1,0,.14c0,.12,0,.24-.05.36a9.46,9.46,0,0,0,0,1.3,8.27,8.27,0,0,0,.22,1.79,7.27,7.27,0,0,0,1.57,3.21,9.49,9.49,0,0,0,6.43,2.87c.2,0,.4.06.6.08l.31,0h.45a4.75,4.75,0,0,0,1.34-.26,8.24,8.24,0,0,0,2.36-1.34,12.52,12.52,0,0,0,1-.9c.19-.17.37-.35.55-.53l.42-.44c.62-.67,1.21-1.36,1.77-2.08a8.25,8.25,0,0,0,2.74,3.57,9.43,9.43,0,0,0,2,1.12,9.9,9.9,0,0,0,2.18.64l.16,0h0l.36,0a2,2,0,0,0,.49,0,3.83,3.83,0,0,0,1-.29,7.37,7.37,0,0,0,.78-.43c.28-.18.55-.38.82-.59a17,17,0,0,0,1.44-1.25,18.64,18.64,0,0,0,1.28-1.39c.41-.49.8-1,1.17-1.51s.69-1,1.08-1.56.7-1.06,1-1.59c.12-.18.24-.36.35-.54s.17-.28.26-.41l.4-.66a14.49,14.49,0,0,0,.09,1.74,8.9,8.9,0,0,0,.38,1.7h0l0,.11c0,.11.07.22.1.32a10.73,10.73,0,0,0,.45,1.11,10.16,10.16,0,0,0,.82,1.43,9,9,0,0,0,2.3,2.34,9.74,9.74,0,0,0,6.26,1.59c2.29,0,4.11-1.53,5.43-3.11a20.27,20.27,0,0,0,1.85-2.65c.55-.93,1.05-1.88,1.54-2.84,1.8-3.63,3.59-8.13,5-11.92a14,14,0,0,0,.46-1.56,6.72,6.72,0,0,0,.22-1.61A2.87,2.87,0,0,0,188.26,30ZM98.13,38.33a12.85,12.85,0,0,1,.48-1.43,22.52,22.52,0,0,1,1.08-2.47A22.24,22.24,0,0,1,101.24,32c.53-.76,1-1.42,1.67-2.18s1.42-1.62,2.07-2.25,1.17-1,1.51-1.32.52-.43.68-.54a3,3,0,0,1,.53-.28l.69-.33c.26-.11.56-.21.71,0a2.76,2.76,0,0,1,.1,1.45,6.67,6.67,0,0,1-.5,1.8,13.18,13.18,0,0,1-1.08,2c-.45.69-1,1.4-1.48,2.06s-1,1.25-1.67,2a27.14,27.14,0,0,1-2.3,2.24A10.62,10.62,0,0,1,100,38.08a6,6,0,0,1-1.57.54C98.11,38.67,98.07,38.6,98.13,38.33ZM70.55,48.41c-3.47-6.68,4.22-19.57,8.53-23.1,1.61-1.31,2.41-1,2.41-1C86,27.25,74.65,53.19,70.55,48.41Zm98.77-20.95c-.47.88-1.1,2-1.88,3.41s-1.66,2.95-2.64,4.67-2,3.44-3.15,5.14-2.2,3.25-3.25,4.67a23.22,23.22,0,0,1-3.05,3.46,4.15,4.15,0,0,1-2.49,1.32q-1.83,0,.36-6.3a56.31,56.31,0,0,1,6.35-12.61q4.17-6.3,7.42-6.3c1.83,0,2.84.41,3,1.22Z"/></g></g></svg>