<?xml version="1.0" encoding="utf-8"?>
<!-- Generator: Adobe Illustrator 22.1.0, SVG Export Plug-In . SVG Version: 6.00 Build 0)  -->
<svg version="1.1" xmlns="http://www.w3.org/2000/svg" xmlns:xlink="http://www.w3.org/1999/xlink" x="0px" y="0px"
	 viewBox="0 0 765.3 206" style="enable-background:new 0 0 765.3 206;" xml:space="preserve">
<style type="text/css">
	.st0{fill:#FFFFFF;}
</style>
<g id="Predeterminada">
	<g>
		<polygon class="st0" points="642.1,139.3 650.9,139.3 650.9,177.2 645,177.2 645,145.3 638.5,145.3 		"/>
		<path class="st0" d="M715.3,164.1c-0.1-0.6-0.2-1.1-0.3-1.6c-0.1-0.5-0.3-1-0.6-1.5c-0.2-0.5-0.5-0.9-0.8-1.4
			c-0.3-0.4-0.6-0.9-1-1.3c-0.4-0.4-0.8-0.8-1.3-1.1c-0.4-0.4-0.9-0.7-1.4-1c0.9-0.7,1.6-1.4,2.2-2.1c0.5-0.7,0.9-1.5,1.1-2.1
			c0.2-0.7,0.4-1.2,0.4-1.7c0.1-0.5,0.1-1,0.1-1.4c0-0.4,0-0.9-0.1-1.3c-0.1-0.4-0.2-0.9-0.3-1.3c-0.1-0.4-0.3-0.9-0.5-1.4
			c-0.2-0.5-0.5-1.1-0.9-1.6c-0.4-0.6-0.9-1.2-1.6-1.8c-0.7-0.6-1.5-1.1-2.3-1.6c-0.9-0.5-1.8-0.8-2.8-1c-1-0.2-2-0.3-3-0.3
			c-1,0-2,0.1-3,0.3c-1,0.2-1.9,0.6-2.8,1c-0.8,0.4-1.5,0.9-2.1,1.3c-0.6,0.5-1,0.9-1.5,1.4c-0.4,0.5-0.8,1-1.2,1.6
			c-0.4,0.6-0.7,1.3-0.9,2.1c-0.2,0.8-0.4,1.7-0.4,2.5c0,0.8,0.1,1.5,0.3,2.2c0.2,0.6,0.4,1.2,0.6,1.7c0.2,0.5,0.5,0.9,0.8,1.3
			c0.3,0.4,0.6,0.9,1,1.2c0.3,0.3,0.6,0.6,0.9,0.8c0.2,0.2,0.4,0.3,0.4,0.4c0,0.1,0,0.1-0.2,0.2c-0.1,0.1-0.3,0.2-0.5,0.4
			c-0.2,0.2-0.6,0.4-0.9,0.7c-0.3,0.3-0.7,0.6-1.1,1c-0.4,0.4-0.7,0.8-1,1.3c-0.3,0.5-0.6,0.9-0.8,1.4c-0.2,0.5-0.4,1-0.6,1.5
			c-0.1,0.5-0.3,1-0.3,1.6c-0.1,0.6-0.1,1.2-0.1,1.8c0,0.6,0.1,1.3,0.2,2c0.1,0.6,0.3,1.2,0.5,1.8c0.2,0.5,0.4,1,0.6,1.4
			c0.2,0.4,0.4,0.7,0.6,1.1c0.2,0.3,0.4,0.6,0.7,1c0.2,0.3,0.5,0.6,0.8,0.9c0.3,0.3,0.6,0.6,1,0.9c0.4,0.3,0.8,0.7,1.4,1
			c0.6,0.3,1.2,0.7,2,1c0.8,0.3,1.7,0.5,2.6,0.7c0.9,0.1,1.9,0.2,2.9,0.2c1,0,2-0.1,2.9-0.2c1-0.2,1.9-0.4,2.8-0.8s1.7-0.8,2.5-1.4
			c0.7-0.5,1.4-1.1,1.9-1.7c0.6-0.6,1-1.3,1.4-1.9c0.4-0.7,0.7-1.3,1-2c0.3-0.7,0.4-1.4,0.6-2.1c0.1-0.7,0.2-1.4,0.2-2
			C715.4,165.3,715.3,164.7,715.3,164.1z M702.1,143.1c3.3,0,6.9,2.2,6.9,5.9c0,3.7-3.6,5.8-6.9,5.8c-3.3,0-6.9-2.2-6.9-5.9
			C695.2,145.3,698.8,143.1,702.1,143.1z M702,173.4c-4.3-0.1-8.5-3.1-8.4-7.7c0.1-4.6,4.5-7.5,8.7-7.4c4.3,0.1,8.5,3.1,8.4,7.7
			C710.6,170.6,706.2,173.5,702,173.4z"/>
		<path class="st0" d="M741.3,149.7c0-0.6-0.1-1.2-0.2-1.7c-0.1-0.5-0.3-1.1-0.4-1.6c-0.2-0.5-0.4-1.1-0.7-1.6
			c-0.3-0.5-0.6-1-0.9-1.5c-0.3-0.5-0.7-0.9-1-1.2c-0.4-0.4-0.7-0.7-1.1-1c-0.4-0.3-0.9-0.6-1.4-1c-0.5-0.3-1.2-0.6-1.9-0.9
			c-0.7-0.3-1.5-0.5-2.4-0.6c-0.9-0.1-1.8-0.2-2.8-0.1c-0.9,0.1-1.9,0.2-2.8,0.5c-0.9,0.3-1.8,0.6-2.6,1.1c-0.8,0.5-1.6,1-2.3,1.6
			c-0.7,0.6-1.3,1.3-1.8,2.1c-0.5,0.8-1,1.6-1.3,2.4c-0.3,0.8-0.5,1.5-0.6,2.2c-0.1,0.7-0.2,1.3-0.2,1.7c0,0.5,0,0.9,0,1.3
			c0,0.4,0.1,0.7,0.1,1.2c0.1,0.4,0.1,0.8,0.3,1.3c0.1,0.5,0.3,1,0.6,1.6c0.3,0.6,0.6,1.1,1,1.7c0.4,0.6,0.8,1.1,1.3,1.6
			c0.5,0.5,1,0.9,1.5,1.3c0.5,0.4,1.1,0.8,1.7,1.1c0.6,0.3,1.2,0.6,1.9,0.8c0.7,0.2,1.4,0.3,2,0.4c0.6,0.1,1.1,0.1,1.5,0.1
			c0.4,0,0.6,0,0.2,0.7c-0.4,0.7-1.4,2.2-2.4,3.6c-1,1.5-2,2.9-3,4.4c-1,1.5-2,2.9-2.2,3.8c-0.2,0.9,0.3,1.3,1,1.7
			c0.7,0.4,1.5,1,3.2,2c3.8-5.7,5.8-8.5,7.4-10.8c1.6-2.4,2.9-4.2,3.6-5.3c0.7-1.1,0.9-1.4,1.2-1.8c0.3-0.4,0.7-1,1.1-1.7
			c0.4-0.7,0.8-1.5,1.2-2.4c0.4-0.8,0.6-1.6,0.9-2.4c0.2-0.8,0.4-1.6,0.4-2.3C741.3,151,741.3,150.4,741.3,149.7z M729.2,158
			c-4.1,0.1-7.5-3.2-7.6-7.3c-0.1-4.1,3.2-7.5,7.3-7.6c4.1-0.1,7.5,3.2,7.6,7.3C736.6,154.6,733.3,158,729.2,158z"/>
		<path class="st0" d="M686.7,149.7c0-0.6-0.1-1.2-0.2-1.7c-0.1-0.5-0.3-1.1-0.4-1.6c-0.2-0.5-0.4-1.1-0.7-1.6
			c-0.3-0.5-0.6-1-0.9-1.5c-0.3-0.5-0.7-0.9-1-1.2c-0.4-0.4-0.7-0.7-1.1-1c-0.4-0.3-0.9-0.6-1.4-1c-0.5-0.3-1.2-0.6-1.9-0.9
			c-0.7-0.3-1.5-0.5-2.4-0.6c-0.9-0.1-1.8-0.2-2.8-0.1c-0.9,0.1-1.9,0.2-2.8,0.5c-0.9,0.3-1.8,0.6-2.6,1.1c-0.8,0.5-1.6,1-2.3,1.6
			c-0.7,0.6-1.3,1.3-1.8,2.1c-0.5,0.8-1,1.6-1.3,2.4c-0.3,0.8-0.5,1.5-0.6,2.2c-0.1,0.7-0.2,1.3-0.2,1.7c0,0.5,0,0.9,0,1.3
			c0,0.4,0.1,0.7,0.1,1.2c0.1,0.4,0.1,0.8,0.3,1.3c0.1,0.5,0.3,1,0.6,1.6c0.3,0.6,0.6,1.1,1,1.7c0.4,0.6,0.8,1.1,1.3,1.6
			c0.5,0.5,1,0.9,1.5,1.3c0.5,0.4,1.1,0.8,1.7,1.1c0.6,0.3,1.2,0.6,1.9,0.8c0.7,0.2,1.4,0.3,2,0.4c0.6,0.1,1.1,0.1,1.5,0.1
			c0.4,0,0.6,0,0.2,0.7c-0.4,0.7-1.4,2.2-2.4,3.6c-1,1.5-2,2.9-3,4.4c-1,1.5-2,2.9-2.2,3.8c-0.2,0.9,0.3,1.3,1,1.7
			c0.7,0.4,1.5,1,3.2,2c3.8-5.7,5.8-8.5,7.4-10.8c1.6-2.4,2.9-4.2,3.6-5.3c0.7-1.1,0.9-1.4,1.2-1.8c0.3-0.4,0.7-1,1.1-1.7
			c0.4-0.7,0.8-1.5,1.2-2.4c0.4-0.8,0.6-1.6,0.9-2.4c0.2-0.8,0.4-1.6,0.4-2.3C686.7,151,686.7,150.4,686.7,149.7z M674.6,158
			c-4.1,0.1-7.5-3.2-7.6-7.3c-0.1-4.1,3.2-7.5,7.3-7.6c4.1-0.1,7.5,3.2,7.6,7.3C682,154.6,678.7,158,674.6,158z"/>
		<path class="st0" d="M747.4,105.7c-0.7-0.9-1.4-0.7-2.3-0.3c-0.7,0.4-1.3,1-1.9,1.5c-1.5,1.3-2.9,2.6-4.4,3.9
			c-2.9,2.7-5.7,5.4-8.7,8c-2.1,1.9-4.2,3.7-6.5,5.2c-1,0.7-1.9,1.3-3.1,1.5c-0.2,0-0.4,0.1-0.4-0.1c0-0.6,0.3-1,0.5-1.5
			c0.8-1.9,1.8-3.6,2.8-5.3c1.7-3.1,3.5-6,4.3-9.5c0.4-2,0.2-3.7-0.4-5.6c-0.8-2.9-1.5-5.3-4.8-6.5c-6.5-2.3-14.9,3.3-19.1,7
			c-4.6,4-9.2,8-13.9,11.8c-3.3,2.6-6.5,5.2-10,7.5c-0.9,0.7-1.9,1.3-2.9,1.9c-0.3,0.2-0.5,0.6-1,0.3c-0.2-0.2-0.3-0.3-0.1-0.6
			c0.6-1,1.4-1.8,2.1-2.7c3.9-4.8,8.1-9.1,10.4-15.2c0.7-1.9,1.3-3.6,0.5-5.7c-0.8-2.3-2.8-3.6-5.3-3.4c-1.8,0.1-3.3,0.8-4.8,1.5
			c-3.2,1.5-6.1,3.5-9,5.6c-5.3,3.8-10.3,8-15.5,11.9c-1.3,1-2.3,2.1-3.8,2.8c-0.3,0.2-0.5,0-0.5-0.3c0-0.7,0.6-0.7,0.9-1
			c2.3-2.3,4.6-4.7,6.8-7.2c2.2-2.5,6-6.8,7-10.3c0.7-2.6-0.6-3.6-3.1-3.7c-2.7-0.1-4.8,0.5-7,2c-7.6,5.3-14.4,11.5-22,16.9
			c-4.9,3.5-9.7,6.8-15.4,9c-1.8,0.7-3.6,1.3-5.6,1.2c-1,0-1.8-0.1-2.7-0.8c-1.1-0.8-1.2-1.9-1.4-3.1c-0.1-0.4-0.1-0.8-0.1-1.1
			c0-0.2,0.2-0.2,0.3-0.2c1.2-0.2,2.4-0.4,3.6-0.7c6.4-1.5,11.7-3.9,16.7-8.2c2.9-2.5,9.1-9.3,6.3-13.9c-2.7-4.1-8.8-2.5-12.2-1.3
			c-4.2,1.5-7.9,3.7-11.4,6.5c-3.4,2.7-6.5,5.9-10.1,8.5c-3.6,2.6-7.2,5-11.2,6.9c-0.1,0.1-0.2,0-0.1-0.1c2.8-3.9,9-13.5,5-19
			c-3.5-4.7-9.1-3.8-13.6-2c-8.4,3.4-19.2,14.9-20,24.6c-0.1,0.8-0.1,1.5,0,2.3c0.1,0.8,0.1,1.5-0.7,2.1c-2.6,1.8-6.6,3.1-9.5,4.2
			c-4.5,1.8-9,3.5-13.5,5.1c-14.5,5.4-35.7,12.7-51.4,14.5c-2.6,0.3-5.1,0.6-7.7,0c-0.9-0.2-1.6-0.4-2.2-1.3
			c-0.8-1.1-0.6-2.1-0.4-3.4c0.6-3.1,2-5.7,3.4-8.4c5.7-10.4,13-19.4,20.4-28.5c8.7-10.7,17.7-21.2,26.4-31.9
			c3.4-4.1,6.8-8.3,9.9-12.6c2.5-3.4,5.1-6.7,6.6-10.8c0.9-2.5,0.6-5.3-1.5-7.1c-2.2-1.9-5.1-2.1-7.7-1.6c-1.2,0.2-2.4,0.7-3.5,1.2
			c-4.7,2.1-9,4.8-13.4,7.4c-20.1,12.3-39.1,26.1-58.2,39.9c-10.1,7.3-20.1,14.6-30.1,22c-3.7,2.7-7.4,5.4-11,8.2
			c-0.7,0.6-1.5,1.2-2.3,1.7c-0.2,0.1-0.3,0.3-0.6,0.1c-0.3-0.2-0.5-0.3-0.3-0.7c0.3-0.5,0.7-0.9,1.1-1.3c1.1-1.2,2.3-2.4,3.4-3.7
			c6.8-7.5,13.6-15,20.2-22.7c9.2-10.7,18.6-21.7,25.8-34.1c1.8-3.1,4.4-7.9,4.1-11.9c-0.4-4.1-3.7-6.3-7.5-6.6c-0.5,0-1,0-1.5,0.1
			c-5.8,1-10.8,3.4-15.9,6c-20,9.9-37.8,22.8-55.8,35.5c-16.9,11.9-33.6,24.1-50.2,36.4c-4.9,3.6-9.8,7.2-14.7,10.9
			c-0.6,0.4-2.1,2.2-3,1.3c-0.3-0.3-0.4-0.6-0.1-1c1.1-1.6,2.6-2.6,4-3.8c3.5-3.2,7-6.4,10.5-9.6c3.8-3.5,7.6-7.1,11.5-10.6
			c6.2-5.8,12.7-11.3,18.9-17.1c5.7-5.3,11.3-10.6,16.6-16.3c4-4.4,8.4-9.8,10.4-15.6c1.9-5.4,0.8-8.8-3.7-12.3
			c-3.5-2.7-7.4-4.8-11.4-6.7c-7.7-3.6-15.7-6.2-24-8.1c-10.3-2.5-20.7-3.9-31.3-4.8c-14.1-1.2-28-1.3-42.1-0.5
			c-29.4,1.6-57.8,6.6-86.1,14.4c-35.5,9.7-68.7,23.5-101.1,40.8c-13.6,7.2-26.7,15.1-39.6,23.4c-9.3,6-18.3,12.4-27.1,19.1
			c-1.9,1.5-3.9,2.9-5.7,4.5c-0.6,0.5-1.2,0.9-1.5,1.7c-0.4,1.1,1,2.5,2.2,2.1c0.9-0.3,1.6-0.8,2.3-1.3c1.7-1.1,3.4-2.3,5.1-3.5
			c4.5-3.2,9.1-6.3,13.7-9.3c23.6-15.5,48-29.3,73.5-41.3c35.8-16.8,72.1-29.2,111.1-36.6c23.7-4.5,47.2-7,71.4-6.9
			c13.7,0,27.2,1,40.8,3.2c11.3,1.8,22.2,4.1,32.9,8.7c3.5,1.5,6.9,3.2,10,5.6c3.8,3,2.7,5.1,0.7,8.7c-3,5.2-7,9.4-11,13.7
			c-5.1,5.5-10.4,10.8-15.7,16.1c-10.1,10.1-20.4,20.1-30.7,30c-11.6,11.1-23.5,22-34.9,33.4c-1.8,1.8-4.3,4.2-2.9,7.2
			c0.8,1.6,1.8,2.1,3.6,2c1.3-0.1,2.2-0.7,3.2-1.3c2.4-1.4,4.7-3,7-4.6c7-4.9,13.9-9.8,20.7-14.8c21-15.2,42-30.3,63.2-45.1
			c16.8-11.7,33.7-23.1,51.4-33.4c6.4-3.7,12.7-7.4,19.7-9.7c1.3-0.4,2.9,0,2.6,1.6c-0.1,0.7-1.6,2.7-2,3.2
			c-3.7,5.7-7.9,11-12.1,16.4C434.9,86.6,426,97,417,107.3c-7.3,8.3-14.7,16.5-22.3,24.5c-5.4,5.7-10.9,11.3-16.2,17
			c-0.8,0.9-1.5,1.8-2.1,2.9c-1.6,3.2-0.6,6.9,3.4,7c2,0.1,3.5-0.6,5.2-1.6c1.2-0.8,2.4-1.7,3.6-2.5c5.6-4.1,11.1-8.1,16.7-12.2
			c16.7-12.2,33.4-24.5,50.1-36.7c16.7-12.3,33.5-24.5,50.5-36.3c7.2-5,14.2-10,21.9-14.2c1.4-0.8,2.7-1.5,4.2-2
			c0.3-0.1,0.9-0.6,0.8,0c-0.1,1.9-1.9,4.2-2.8,5.6c-7.4,11.3-16.4,21.2-24.9,31.6c-8.5,10.5-17.1,20.9-24.6,32.2
			c-3.1,4.6-6,9.2-8.3,14.3c-1.7,3.6-3,7.1-3.2,11.2c-0.3,6.9,4.6,9.6,10.8,9.8c11.5,0.5,28.1-4.8,38.5-8.3
			c15.5-5.3,30.6-11.5,45.4-18.3c0.2-0.1,0.4-0.2,0.6-0.3c0.1,0,0.1,0.1,0.2,0.1c3.1,1.7,5.9,1.4,9.1,0.6c2-0.5,3.9-1.3,5.7-2.4
			c1.2-0.7,2.1-1.7,3.4-2.4c3.3-1.8,6.9-2.7,10.2-4.4c1.6-0.9,3.2-1.8,4.8-2.8c0.6-0.4,1.1-0.8,1.7-1.1c0.2-0.1,0.5-0.5,0.5-0.1
			c0.2,0.8-0.2,1.4-0.3,2c-0.1,1.2-0.1,2.3,0.1,3.4c0.4,2,1.1,3.8,2.5,5.4c3.1,3.7,7.4,3.3,11.4,2.1c4.4-1.3,8.2-3.5,12-5.9
			c7-4.5,13.2-9.9,19.8-14.8c3.1-2.3,6-4.8,9.2-6.8c0.4-0.3,1.5-0.9,0.9-0.2c-0.8,1-1.7,1.9-2.6,2.8c-2.7,2.7-5.5,5.3-8.2,8.1
			c-2.7,2.8-7.3,7.3-8.6,11.4c-0.9,2.6-0.1,5.3,2.8,5.8c2.3,0.4,3.7-0.6,5.5-1.7c4.8-3.2,9.4-6.6,14.1-9.9
			c4.8-3.4,13.4-9.5,19.1-11.7c0.7-0.3,1.5-0.6,2.3-0.7c0.2,0,0.4-0.3,0.5,0c0,0.2-0.1,0.3-0.2,0.4c-0.3,0.5-0.6,1-1,1.5
			c-2.8,4-6.1,7.5-8.9,11.5c-1.4,2-2.7,3.9-3.1,6.4c-0.2,1-0.2,1.8,0.4,2.7c1.7,2.5,5.4,1.7,7.5,0.8c5.7-2.4,10.1-6.2,14.7-10
			c0.3-0.3,1.4-1.5,1.1-0.6c-0.2,0.7-0.5,1.4-0.6,2.1c-0.4,2.2-0.3,4.1,0.8,6.2c2,4,5.9,4,9.5,2.2c4.2-2.1,11.3-8.9,14.6-11.9
			c0.1-0.1,0.2-0.3,0.2-0.2c0,0.2-0.1,0.3-0.2,0.5c-0.4,0.9-0.8,1.9-1.2,2.9c-0.8,2.1-1.4,4-0.9,6.3c1.3,5.9,8,3.1,11.6,0.8
			c7.2-4.7,12.7-11,18.8-16.8c1.1-1,2.1-2,3.2-3c0.4-0.4,0.9-0.7,1.2-1.2C748.2,107.1,748.1,106.5,747.4,105.7z M608,116.4
			c0.2-0.7,0.6-1.5,1.2-2.4c0.7-0.9,1.4-1.7,2.1-2.6c0.7-0.9,1.5-1.7,2.3-2.5c0.8-0.8,1.7-1.6,2.5-2.3c0.9-0.8,1.7-1.5,2.6-2.1
			c0.9-0.6,1.8-1.3,2.7-1.9c0.9-0.6,1.7-1.1,2.5-1.5c0.8-0.4,1.5-0.8,2.2-1.1c0.7-0.3,1.4-0.6,1.9-0.7c0.5-0.1,1.1-0.2,1.5-0.2
			c0.5,0,0.8,0.2,1.1,0.8c0.1,1-0.1,2-0.5,2.8c-0.4,0.8-1,1.7-1.5,2.6c-0.6,0.9-1.3,1.8-2.3,2.7c-1,0.9-2,1.8-3.1,2.7
			c-1.1,0.9-2.4,1.8-3.8,2.6c-1.5,0.8-3,1.6-4.5,2.3c-1.6,0.7-3.1,1.2-4.8,1.5C608.5,117.4,607.8,117.1,608,116.4z M587.1,110.7
			c-0.4,0.9-1,1.8-1.8,2.8c-0.8,1-1.5,2-2.3,3c-0.8,1-1.5,1.9-2.3,2.8c-0.8,0.9-1.6,1.7-2.4,2.6c-0.8,0.9-1.6,1.6-2.4,2.2
			c-0.8,0.6-1.6,1.2-2.3,1.8c-0.8,0.6-1.4,0.9-2,1c-0.5,0.1-1.1,0.2-1.6,0.3c-0.5,0.1-1,0-1.3-0.2c-0.3-0.3-0.7-0.5-1-0.8
			c-0.3-0.3-0.5-0.6-0.6-1.2c0-0.5-0.1-1.1-0.1-1.6c0-0.5,0.1-1.2,0.3-1.9c0.2-0.7,0.5-1.5,0.7-2.2c0.2-0.7,0.7-1.6,1.2-2.5
			c0.6-0.9,1.5-2.2,2.6-4c1.2-1.8,2.3-3.1,3.3-4.1c1-0.9,2-1.9,3.1-2.8c1-0.9,1.9-1.6,2.7-2c0.8-0.4,1.6-0.8,2.3-1.2
			c0.8-0.4,1.4-0.6,1.9-0.6c0.5,0,1,0,1.5-0.1c0.5,0,0.9,0,1.2,0.1c1,0.4,1.5,1,1.5,1.6c-0.1,0.7-0.1,1.3-0.2,2
			c-0.1,0.7-0.3,1.4-0.8,2.3C588,108.9,587.6,109.8,587.1,110.7z M716,110.3c-5,4-9.8,8.3-15,12.1c-1,0.8-4.2,3.2-5.7,3.3
			c-1.3,0.1-0.9-1.7-0.5-2.5c1.4-3,3.4-5.5,5.5-7.9c4.3-4.9,9-9.1,14.5-12.7c1.6-1,3-2.1,5.1-1.9c1.4,0.1,2.4,1.8,2.6,2.9
			c0.2,1.2-0.3,1.8-1.1,2.4C719.6,107.5,717.8,108.8,716,110.3z"/>
	</g>
</g>
<g id="Viewport_Boundary">
</g>
</svg>
