<?xml version="1.0" encoding="utf-8"?>
<!-- Generator: Adobe Illustrator 22.1.0, SVG Export Plug-In . SVG Version: 6.00 Build 0)  -->
<svg version="1.1" xmlns="http://www.w3.org/2000/svg" xmlns:xlink="http://www.w3.org/1999/xlink" x="0px" y="0px"
	 viewBox="0 0 765.3 206" style="enable-background:new 0 0 765.3 206;" xml:space="preserve">
<style type="text/css">
	.st0{fill:#FFFFFF;}
</style>
<g id="Predeterminada">
	<path d="M725.8,110c-0.8,3.5-2.6,6.5-4.3,9.5c-1,1.7-2,3.4-2.8,5.3c-0.2,0.5-0.5,0.9-0.5,1.5c0,0.3,0.2,0.2,0.4,0.1
		c1.2-0.2,2.2-0.8,3.1-1.5c2.3-1.6,4.4-3.4,6.5-5.2c3-2.6,5.8-5.3,8.7-8c1.4-1.3,2.9-2.6,4.4-3.9c0.6-0.5,1.1-1.1,1.9-1.5
		c0.9-0.5,1.6-0.6,2.3,0.3c0.7,0.8,0.8,1.5,0.3,2.4c-0.3,0.5-0.8,0.8-1.2,1.2c-1.1,1-2.2,2-3.2,3c-6.1,5.8-11.6,12.1-18.8,16.8
		c-3.6,2.3-10.3,5.1-11.6-0.8c-0.5-2.3,0.1-4.2,0.9-6.3c0.4-1,0.8-1.9,1.2-2.9c0.1-0.2,0.2-0.3,0.2-0.5c0-0.2-0.1,0.1-0.2,0.2
		c-3.3,3-10.4,9.8-14.6,11.9c-3.6,1.7-7.4,1.8-9.5-2.2c-1-2.1-1.2-3.9-0.8-6.2c0.1-0.7,0.4-1.4,0.6-2.1c0.3-0.8-0.8,0.3-1.1,0.6
		c-4.6,3.8-9,7.6-14.7,10c-2.1,0.9-5.8,1.7-7.5-0.8c-0.6-0.9-0.6-1.7-0.4-2.7c0.4-2.5,1.8-4.4,3.1-6.4c2.8-4,6.1-7.5,8.9-11.5
		c0.3-0.5,0.7-1,1-1.5c0.1-0.1,0.2-0.2,0.2-0.4c0-0.3-0.3,0-0.5,0c-0.8,0.1-1.6,0.4-2.3,0.7c-5.7,2.2-14.2,8.2-19.1,11.7
		c-4.7,3.3-9.3,6.7-14.1,9.9c-1.7,1.1-3.2,2.1-5.5,1.7c-3-0.6-3.7-3.2-2.8-5.8c1.3-4,5.9-8.6,8.6-11.4c2.7-2.7,5.5-5.3,8.2-8.1
		c0.9-0.9,1.8-1.8,2.6-2.8c0.6-0.7-0.5-0.1-0.9,0.2c-3.3,2.1-6.2,4.5-9.2,6.8c-6.6,5-12.8,10.4-19.8,14.8c-3.8,2.4-7.6,4.6-12,5.9
		c-4,1.2-8.3,1.6-11.4-2.1c-1.4-1.6-2.1-3.4-2.5-5.4c-0.2-1.1-0.3-2.3-0.1-3.4c0.1-0.7,0.5-1.3,0.3-2c-0.1-0.4-0.4,0-0.5,0.1
		c-0.6,0.3-1.1,0.7-1.7,1.1c-1.6,1-3.1,1.9-4.8,2.8c-3.3,1.7-6.9,2.7-10.2,4.4c-1.2,0.7-2.2,1.6-3.4,2.4c-1.8,1.1-3.6,1.9-5.7,2.4
		c-3.2,0.8-6,1-9.1-0.6c-0.1,0-0.1-0.1-0.2-0.1c-0.2,0.1-0.4,0.2-0.6,0.3c-14.9,6.9-29.9,13-45.4,18.3c-10.4,3.5-27,8.8-38.5,8.3
		c-6.2-0.2-11-2.9-10.8-9.8c0.2-4.1,1.5-7.6,3.2-11.2c2.3-5.1,5.2-9.7,8.3-14.3c7.5-11.3,16.1-21.7,24.6-32.2
		c8.5-10.4,17.5-20.3,24.9-31.6c0.9-1.4,2.7-3.7,2.8-5.6c0-0.5-0.5-0.1-0.8,0c-1.5,0.5-2.9,1.3-4.2,2c-7.7,4.2-14.7,9.2-21.9,14.2
		c-17.1,11.8-33.8,24.1-50.5,36.3c-16.7,12.2-33.4,24.5-50.1,36.7c-5.6,4.1-11.1,8.1-16.7,12.2c-1.2,0.9-2.3,1.8-3.6,2.5
		c-1.6,1-3.2,1.7-5.2,1.6c-4-0.2-5-3.8-3.4-7c0.5-1.1,1.3-2,2.1-2.9c5.3-5.7,10.8-11.3,16.2-17c7.6-8.1,15-16.2,22.3-24.5
		c9-10.3,17.9-20.7,26.3-31.4c4.2-5.3,8.3-10.7,12.1-16.4c0.3-0.5,1.8-2.6,2-3.2c0.3-1.6-1.3-2-2.6-1.6c-7.1,2.4-13.4,6.1-19.7,9.7
		c-17.7,10.3-34.6,21.7-51.4,33.4c-21.3,14.8-42.2,29.9-63.2,45.1c-6.9,5-13.8,10-20.7,14.8c-2.3,1.6-4.6,3.2-7,4.6
		c-1,0.6-2,1.2-3.2,1.3c-1.8,0.1-2.8-0.4-3.6-2c-1.5-3,1.1-5.4,2.9-7.2c11.4-11.3,23.3-22.2,34.9-33.4c10.3-9.9,20.6-19.9,30.7-30
		c5.3-5.3,10.6-10.5,15.7-16.1c4-4.3,8-8.5,11-13.7c2.1-3.6,3.2-5.7-0.7-8.7c-3.1-2.4-6.4-4.1-10-5.6c-10.6-4.6-21.6-6.8-32.9-8.7
		c-13.5-2.2-27.1-3.2-40.8-3.2c-24.1-0.1-47.7,2.4-71.4,6.9c-38.9,7.4-75.3,19.8-111.1,36.6c-25.6,12-49.9,25.8-73.5,41.3
		c-4.6,3-9.2,6.2-13.7,9.3c-1.7,1.2-3.4,2.4-5.1,3.5c-0.8,0.5-1.5,1-2.3,1.3c-1.1,0.4-2.6-1-2.2-2.1c0.3-0.8,0.9-1.2,1.5-1.7
		c1.8-1.6,3.8-3.1,5.7-4.5c8.8-6.7,17.8-13.1,27.1-19.1c12.9-8.4,26-16.2,39.6-23.4C121.9,66.8,155,53,190.5,43.3
		c28.4-7.8,56.7-12.8,86.1-14.4c14.1-0.8,28.1-0.7,42.1,0.5c10.6,0.9,20.9,2.4,31.3,4.8c8.3,2,16.3,4.5,24,8.1c4,1.9,7.8,4,11.4,6.7
		c4.5,3.5,5.6,6.8,3.7,12.3c-2,5.8-6.4,11.2-10.4,15.6c-5.2,5.7-10.9,11-16.6,16.3c-6.3,5.8-12.7,11.3-18.9,17.1
		c-3.8,3.5-7.6,7.1-11.5,10.6c-3.5,3.2-7,6.4-10.5,9.6c-1.4,1.2-2.9,2.2-4,3.8c-0.3,0.4-0.2,0.7,0.1,1c0.9,0.9,2.4-0.9,3-1.3
		c4.9-3.6,9.8-7.3,14.7-10.9c16.6-12.3,33.3-24.5,50.2-36.4c18.1-12.7,35.8-25.6,55.8-35.5c5.1-2.5,10.2-4.9,15.9-6
		c0.5-0.1,1-0.1,1.5-0.1c3.8,0.3,7.2,2.5,7.5,6.6c0.4,4-2.3,8.8-4.1,11.9c-7.1,12.4-16.6,23.4-25.8,34.1
		c-6.6,7.7-13.3,15.2-20.2,22.7c-1.1,1.2-2.3,2.4-3.4,3.7c-0.4,0.4-0.9,0.8-1.1,1.3c-0.2,0.4,0,0.6,0.3,0.7c0.3,0.1,0.4,0,0.6-0.1
		c0.8-0.5,1.5-1.1,2.3-1.7c3.7-2.7,7.4-5.5,11-8.2c10-7.4,20-14.8,30.1-22c19.1-13.7,38.1-27.6,58.2-39.9c4.4-2.7,8.7-5.3,13.4-7.4
		c1.1-0.5,2.2-1,3.5-1.2c2.6-0.5,5.5-0.3,7.7,1.6c2.2,1.9,2.4,4.6,1.5,7.1c-1.5,4.2-4,7.4-6.6,10.8c-3.2,4.3-6.5,8.5-9.9,12.6
		c-8.8,10.7-17.7,21.2-26.4,31.9c-7.4,9.1-14.7,18.1-20.4,28.5c-1.5,2.7-2.8,5.3-3.4,8.4c-0.2,1.2-0.4,2.2,0.4,3.4
		c0.6,0.8,1.3,1,2.2,1.3c2.6,0.6,5.1,0.3,7.7,0c15.7-1.8,36.9-9.1,51.4-14.5c4.5-1.7,9-3.4,13.5-5.1c2.8-1.1,6.9-2.4,9.5-4.2
		c0.8-0.6,0.7-1.2,0.7-2.1c-0.1-0.8-0.1-1.5,0-2.3c0.7-9.7,11.6-21.2,20-24.6c4.5-1.8,10.1-2.8,13.6,2c4,5.5-2.1,15.1-5,19
		c-0.1,0.1,0,0.2,0.1,0.1c4-2,7.6-4.3,11.2-6.9c3.6-2.6,6.6-5.7,10.1-8.5c3.5-2.8,7.2-5,11.4-6.5c3.4-1.2,9.5-2.8,12.2,1.3
		c2.9,4.7-3.3,11.4-6.3,13.9c-5,4.3-10.4,6.7-16.7,8.2c-1.2,0.3-2.4,0.5-3.6,0.7c-0.2,0-0.3,0-0.3,0.2c0,0.4,0,0.8,0.1,1.1
		c0.2,1.2,0.3,2.2,1.4,3.1c0.8,0.6,1.7,0.7,2.7,0.8c2,0,3.8-0.5,5.6-1.2c5.7-2.2,10.5-5.5,15.4-9c7.5-5.4,14.4-11.6,22-16.9
		c2.2-1.5,4.4-2.1,7-2c2.5,0.1,3.9,1.1,3.1,3.7c-1,3.5-4.8,7.8-7,10.3c-2.2,2.5-4.4,4.9-6.8,7.2c-0.3,0.3-0.9,0.4-0.9,1
		c0,0.4,0.2,0.5,0.5,0.3c1.5-0.7,2.5-1.9,3.8-2.8c5.2-3.9,10.3-8.1,15.5-11.9c2.9-2.1,5.8-4,9-5.6c1.5-0.7,3-1.4,4.8-1.5
		c2.4-0.1,4.4,1.1,5.3,3.4c0.8,2.1,0.2,3.8-0.5,5.7c-2.3,6.1-6.6,10.4-10.4,15.2c-0.7,0.9-1.5,1.7-2.1,2.7c-0.2,0.3-0.1,0.4,0.1,0.6
		c0.4,0.3,0.7-0.1,1-0.3c1-0.6,1.9-1.2,2.9-1.9c3.4-2.4,6.7-4.9,10-7.5c4.7-3.8,9.3-7.8,13.9-11.8c4.2-3.6,12.5-9.3,19.1-7
		c3.3,1.2,4,3.6,4.8,6.5C726,106.3,726.2,108,725.8,110z"/>
	<polygon points="640.3,140.3 649.1,140.3 649.1,178.1 643.1,178.1 643.1,146.2 636.6,146.2 	"/>
	<path d="M669.1,179.5c-1.7-1.1-2.5-1.6-3.2-2c-0.7-0.4-1.2-0.8-1-1.7c0.2-0.9,1.2-2.4,2.2-3.8c1-1.5,2-2.9,3-4.4
		c1-1.5,2-2.9,2.4-3.6c0.4-0.7,0.1-0.7-0.2-0.7c-0.4,0-0.9,0-1.5-0.1c-0.6-0.1-1.3-0.2-2-0.4c-0.7-0.2-1.3-0.4-1.9-0.8
		c-0.6-0.3-1.2-0.7-1.7-1.1c-0.5-0.4-1-0.9-1.5-1.3c-0.5-0.5-0.9-1-1.3-1.6c-0.4-0.6-0.7-1.1-1-1.7c-0.3-0.6-0.4-1.1-0.6-1.6
		c-0.1-0.5-0.2-0.9-0.3-1.3c-0.1-0.4-0.1-0.8-0.1-1.2c0-0.4,0-0.8,0-1.3c0-0.5,0.1-1.1,0.2-1.7c0.1-0.7,0.3-1.4,0.6-2.2
		c0.3-0.8,0.7-1.6,1.3-2.4c0.5-0.8,1.1-1.5,1.8-2.1c0.7-0.6,1.5-1.2,2.3-1.6c0.8-0.5,1.7-0.8,2.6-1.1c0.9-0.3,1.8-0.4,2.8-0.5
		c0.9-0.1,1.9,0,2.8,0.1c0.9,0.1,1.7,0.3,2.4,0.6c0.7,0.3,1.4,0.6,1.9,0.9c0.5,0.3,1,0.6,1.4,1c0.4,0.3,0.8,0.7,1.1,1
		c0.4,0.4,0.7,0.8,1,1.2c0.3,0.5,0.6,1,0.9,1.5c0.3,0.5,0.5,1.1,0.7,1.6c0.2,0.5,0.3,1,0.4,1.6c0.1,0.5,0.2,1.1,0.2,1.7
		c0,0.6,0,1.3,0,2c-0.1,0.7-0.2,1.5-0.4,2.3c-0.2,0.8-0.5,1.6-0.9,2.4c-0.4,0.8-0.8,1.7-1.2,2.4c-0.4,0.7-0.8,1.3-1.1,1.7
		c-0.3,0.4-0.5,0.7-1.2,1.8c-0.7,1.1-2,3-3.6,5.3C674.8,171,672.9,173.8,669.1,179.5z"/>
	<path d="M708.1,157.2c0.5,0.3,1,0.6,1.4,1c0.4,0.4,0.9,0.7,1.3,1.1c0.4,0.4,0.7,0.8,1,1.3c0.3,0.4,0.6,0.9,0.8,1.4
		c0.2,0.5,0.4,1,0.6,1.5c0.1,0.5,0.3,1,0.3,1.6c0.1,0.6,0.1,1.2,0.1,1.8c0,0.6-0.1,1.3-0.2,2c-0.1,0.7-0.3,1.4-0.6,2.1
		c-0.3,0.7-0.6,1.4-1,2c-0.4,0.7-0.9,1.3-1.4,1.9c-0.6,0.6-1.2,1.2-1.9,1.7c-0.7,0.5-1.6,1-2.5,1.4c-0.9,0.4-1.8,0.6-2.8,0.8
		c-1,0.2-2,0.2-2.9,0.2c-1,0-2-0.1-2.9-0.2c-0.9-0.1-1.8-0.4-2.6-0.7c-0.8-0.3-1.5-0.6-2-1c-0.6-0.3-1-0.7-1.4-1
		c-0.4-0.3-0.7-0.6-1-0.9c-0.3-0.3-0.5-0.6-0.8-0.9c-0.2-0.3-0.5-0.6-0.7-1c-0.2-0.3-0.4-0.7-0.6-1.1c-0.2-0.4-0.4-0.9-0.6-1.4
		c-0.2-0.5-0.4-1.1-0.5-1.8c-0.1-0.6-0.2-1.3-0.2-2c0-0.6,0-1.3,0.1-1.8c0.1-0.6,0.2-1.1,0.3-1.6c0.1-0.5,0.3-1,0.6-1.5
		c0.2-0.5,0.5-1,0.8-1.4c0.3-0.5,0.7-0.9,1-1.3c0.4-0.4,0.7-0.7,1.1-1c0.3-0.3,0.7-0.5,0.9-0.7c0.2-0.2,0.4-0.3,0.5-0.4
		c0.1-0.1,0.2-0.1,0.2-0.2c0-0.1-0.2-0.2-0.4-0.4c-0.2-0.2-0.5-0.5-0.9-0.8c-0.3-0.3-0.7-0.8-1-1.2c-0.3-0.4-0.5-0.9-0.8-1.3
		c-0.2-0.5-0.4-1-0.6-1.7c-0.2-0.6-0.3-1.4-0.3-2.2c0-0.8,0.2-1.7,0.4-2.5c0.2-0.8,0.6-1.5,0.9-2.1c0.4-0.6,0.7-1.1,1.2-1.6
		c0.4-0.5,0.9-1,1.5-1.4c0.6-0.5,1.3-0.9,2.1-1.3c0.8-0.4,1.8-0.8,2.8-1c1-0.2,2-0.3,3-0.3c1,0,2,0.1,3,0.3c1,0.2,1.9,0.6,2.8,1
		c0.9,0.5,1.7,1,2.3,1.6c0.7,0.6,1.2,1.2,1.6,1.8c0.4,0.6,0.7,1.1,0.9,1.6c0.2,0.5,0.4,0.9,0.5,1.4c0.1,0.4,0.2,0.9,0.3,1.3
		c0.1,0.4,0.1,0.9,0.1,1.3c0,0.4,0,0.9-0.1,1.4c-0.1,0.5-0.2,1.1-0.4,1.7c-0.2,0.7-0.6,1.4-1.1,2.1
		C709.7,155.8,709,156.5,708.1,157.2z"/>
	<path d="M723.6,179.5c-1.7-1.1-2.5-1.6-3.2-2c-0.7-0.4-1.2-0.8-1-1.7c0.2-0.9,1.2-2.4,2.2-3.8c1-1.5,2-2.9,3-4.4
		c1-1.5,2-2.9,2.4-3.6c0.4-0.7,0.1-0.7-0.2-0.7c-0.4,0-0.9,0-1.5-0.1c-0.6-0.1-1.3-0.2-2-0.4c-0.7-0.2-1.3-0.4-1.9-0.8
		c-0.6-0.3-1.2-0.7-1.7-1.1c-0.5-0.4-1-0.9-1.5-1.3c-0.5-0.5-0.9-1-1.3-1.6c-0.4-0.6-0.7-1.1-1-1.7s-0.4-1.1-0.6-1.6
		c-0.1-0.5-0.2-0.9-0.3-1.3c-0.1-0.4-0.1-0.8-0.1-1.2c0-0.4,0-0.8,0-1.3c0-0.5,0.1-1.1,0.2-1.7c0.1-0.7,0.3-1.4,0.6-2.2
		c0.3-0.8,0.7-1.6,1.3-2.4c0.5-0.8,1.1-1.5,1.8-2.1c0.7-0.6,1.5-1.2,2.3-1.6c0.8-0.5,1.7-0.8,2.6-1.1c0.9-0.3,1.8-0.4,2.8-0.5
		c0.9-0.1,1.9,0,2.8,0.1c0.9,0.1,1.7,0.3,2.4,0.6c0.7,0.3,1.4,0.6,1.9,0.9c0.5,0.3,1,0.6,1.4,1c0.4,0.3,0.8,0.7,1.1,1
		c0.4,0.4,0.7,0.8,1,1.2c0.3,0.5,0.6,1,0.9,1.5c0.3,0.5,0.5,1.1,0.7,1.6c0.2,0.5,0.3,1,0.4,1.6c0.1,0.5,0.2,1.1,0.2,1.7
		c0,0.6,0,1.3,0,2c-0.1,0.7-0.2,1.5-0.4,2.3c-0.2,0.8-0.5,1.6-0.9,2.4c-0.4,0.8-0.8,1.7-1.2,2.4c-0.4,0.7-0.8,1.3-1.1,1.7
		c-0.3,0.4-0.5,0.7-1.2,1.8c-0.7,1.1-2,3-3.6,5.3C729.4,171,727.5,173.8,723.6,179.5z"/>
	<path class="st0" d="M628.9,100.8c-0.3-0.6-0.6-0.8-1.1-0.8c-0.5,0-1,0.1-1.5,0.2c-0.5,0.1-1.2,0.3-1.9,0.7
		c-0.7,0.3-1.5,0.7-2.2,1.1c-0.8,0.4-1.6,0.9-2.5,1.5c-0.9,0.6-1.8,1.2-2.7,1.9c-0.9,0.6-1.8,1.3-2.6,2.1c-0.9,0.8-1.7,1.5-2.5,2.3
		c-0.8,0.8-1.6,1.6-2.3,2.5c-0.7,0.9-1.4,1.7-2.1,2.6c-0.7,0.9-1.1,1.7-1.2,2.4c-0.2,0.7,0.6,1,2.2,0.8c1.6-0.2,3.2-0.7,4.8-1.5
		c1.5-0.7,3.1-1.5,4.5-2.3c1.5-0.8,2.7-1.7,3.8-2.6c1.1-0.9,2.1-1.8,3.1-2.7c1-0.9,1.7-1.8,2.3-2.7c0.6-0.9,1.1-1.8,1.5-2.6
		C628.8,102.8,629,101.9,628.9,100.8z"/>
	<path class="st0" d="M700.4,159.2c-4.2-0.1-8.6,2.8-8.7,7.4c-0.1,4.6,4.2,7.7,8.4,7.7c4.2,0.1,8.6-2.8,8.7-7.4
		C709,162.3,704.7,159.3,700.4,159.2z"/>
	<path class="st0" d="M700.2,144.1c-3.3,0-6.9,2.2-6.9,5.8c0,3.7,3.6,5.9,6.9,5.9c3.3,0,6.9-2.2,6.9-5.8
		C707.1,146.2,703.5,144.1,700.2,144.1z"/>
	<path class="st0" d="M727.1,144.1c-4.1,0.1-7.4,3.5-7.3,7.6c0.1,4.1,3.5,7.4,7.6,7.3c4.1-0.1,7.4-3.5,7.3-7.6
		C734.6,147.3,731.2,144,727.1,144.1z"/>
	<path class="st0" d="M672.5,144.1c-4.1,0.1-7.4,3.5-7.3,7.6c0.1,4.1,3.5,7.4,7.6,7.3c4.1-0.1,7.4-3.5,7.3-7.6
		C680,147.3,676.6,144,672.5,144.1z"/>
	<path class="st0" d="M586.2,103c-0.3-0.1-0.6-0.1-1.2-0.1c-0.5,0-1,0-1.5,0.1c-0.5,0-1.2,0.2-1.9,0.6c-0.8,0.4-1.6,0.8-2.3,1.2
		c-0.8,0.4-1.7,1.1-2.7,2c-1,1-2,1.9-3.1,2.8c-1,1-2.1,2.3-3.3,4.1c-1.2,1.8-2,3.1-2.6,4c-0.6,0.9-1,1.7-1.2,2.5
		c-0.2,0.7-0.5,1.5-0.7,2.2c-0.2,0.7-0.4,1.4-0.3,1.9c0,0.5,0.1,1.1,0.1,1.6c0,0.5,0.2,0.9,0.6,1.2c0.3,0.3,0.7,0.5,1,0.8
		c0.3,0.3,0.8,0.3,1.3,0.2c0.5-0.1,1.1-0.2,1.6-0.3c0.5-0.1,1.2-0.5,2-1c0.8-0.6,1.6-1.2,2.3-1.8c0.8-0.6,1.6-1.3,2.4-2.2
		c0.8-0.9,1.6-1.7,2.4-2.6c0.8-0.9,1.6-1.8,2.3-2.8c0.8-1,1.5-2,2.3-3c0.8-1,1.4-1.9,1.8-2.8c0.4-0.9,0.9-1.8,1.3-2.7
		c0.4-0.9,0.7-1.7,0.8-2.3c0.1-0.7,0.1-1.3,0.2-2C587.7,104,587.2,103.5,586.2,103z"/>
	<path class="st0" d="M714.2,111.2c-5,4-9.8,8.3-15,12.1c-1,0.8-4.2,3.2-5.7,3.3c-1.3,0.1-0.9-1.7-0.5-2.5c1.4-3,3.4-5.5,5.5-7.9
		c4.3-4.9,9-9.1,14.5-12.7c1.6-1,3-2.1,5.1-1.9c1.4,0.1,2.4,1.8,2.6,2.9c0.2,1.2-0.3,1.8-1.1,2.4C717.8,108.4,716,109.8,714.2,111.2
		z"/>
</g>
<g id="Viewport_Boundary">
</g>
</svg>
