<?xml version="1.0" encoding="utf-8"?>
<!-- Generator: Adobe Illustrator 23.0.2, SVG Export Plug-In . SVG Version: 6.00 Build 0)  -->
<svg version="1.1" id="Layer_1" xmlns="http://www.w3.org/2000/svg" xmlns:xlink="http://www.w3.org/1999/xlink" x="0px" y="0px"
	 viewBox="0 0 612 792" style="enable-background:new 0 0 612 792;" xml:space="preserve">
<style type="text/css">
	.st0{fill:#FFCC00;}
	.st1{fill:#D3072A;}
	.st2{fill-rule:evenodd;clip-rule:evenodd;fill:#D3072A;}
</style>
<g>
	<polygon class="st0" points="588.9,309 588.9,434.1 22,434.1 22,309 588.9,309 	"/>
	<path class="st1" d="M121.7,331.5l-18.1,24.6c0,0,93.9,0,98.7,0c5,0,4.9,1.9,2.5,5.2c-2.5,3.4-6.6,9.2-9.1,12.6
		c-1.3,1.7-3.6,4.9,4.1,4.9c8.1,0,40.4,0,40.4,0s6.5-8.9,12-16.3c7.4-10.1,0.6-31-25.9-31C202.4,331.5,121.7,331.5,121.7,331.5
		L121.7,331.5z"/>
	<path class="st1" d="M96.3,411.6l36.4-49.4c0,0,40.3,0,45.1,0c5,0,4.9,1.9,2.5,5.2c-2.5,3.4-6.7,9.1-9.2,12.5
		c-1.3,1.7-3.6,4.9,4.1,4.9c8.1,0,60.5,0,60.5,0c-5,6.9-21.3,26.8-50.6,26.8C161.2,411.6,96.3,411.6,96.3,411.6L96.3,411.6z"/>
	<path class="st1" d="M304.6,384.8l-19.7,26.8h-52c0,0,19.7-26.8,19.7-26.8L304.6,384.8L304.6,384.8z"/>
	<polygon class="st1" points="384.3,378.7 257,378.7 291.9,331.5 343.9,331.5 323.9,358.6 347.2,358.6 367.1,331.5 419.1,331.5 
		384.3,378.7 	"/>
	<path class="st1" d="M379.9,384.8l-19.7,26.8h-52c0,0,19.7-26.8,19.7-26.8H379.9L379.9,384.8z"/>
	<polygon class="st1" points="22,395.4 98.7,395.4 94.5,401.1 22,401.1 22,395.4 	"/>
	<polygon class="st1" points="22,384.8 106.5,384.8 102.3,390.5 22,390.5 22,384.8 	"/>
	<polygon class="st1" points="22,406 90.9,406 86.7,411.6 22,411.6 22,406 	"/>
	<polygon class="st1" points="588.9,401.1 512.6,401.1 516.7,395.4 588.9,395.4 588.9,401.1 	"/>
	<polygon class="st1" points="588.9,411.6 504.8,411.6 509,406 588.9,406 588.9,411.6 	"/>
	<polygon class="st1" points="524.5,384.8 588.9,384.8 588.9,390.5 520.3,390.5 524.5,384.8 	"/>
	<path class="st1" d="M491.2,331.5l-34.8,47.3h-55.1c0,0,34.8-47.3,34.8-47.3H491.2L491.2,331.5z"/>
	<path class="st1" d="M396.8,384.8c0,0-3.8,5.2-5.7,7.7c-6.5,8.8-0.8,19.1,20.6,19.1c24.6,0,83.6,0,83.6,0l19.7-26.8H396.8
		L396.8,384.8z"/>
	<polygon class="st0" points="22,454.5 588.9,454.5 588.9,457.3 22,457.3 22,454.5 	"/>
	<polygon class="st0" points="22,467.7 588.9,467.7 588.9,470.5 22,470.5 22,467.7 	"/>
	<polygon class="st0" points="22,480.9 588.9,480.9 588.9,483.7 22,483.7 22,480.9 	"/>
	<polygon class="st1" points="212.4,483.7 229.4,483.7 232.2,480 219.5,480 226.6,470.4 238.1,470.4 240.9,466.7 229.3,466.7 
		235.6,458.1 248.3,458.1 251,454.5 234,454.5 212.4,483.7 	"/>
	<polygon class="st1" points="233.3,483.7 238.5,483.7 256.4,471.3 256.2,483.7 261.7,483.7 261.8,468.4 282.3,454.5 277.3,454.5 
		261,465.7 261.2,454.5 255.9,454.5 255.8,468.5 233.3,483.7 	"/>
	<path class="st2" d="M288.9,458.1h3.7c2.7,0,5.7,1.3,3,5c-2.8,3.9-7.2,5.2-9.9,5.2h-4.3L288.9,458.1L288.9,458.1z M265.7,483.7h4.4
		l8.6-11.7h4.3c5.5,0,12.5-2.3,17.3-8.8c4.9-6.7,1.3-8.8-5-8.8h-8L265.7,483.7L265.7,483.7z"/>
	<path class="st2" d="M290.8,483.7h4.4l9.6-13h2.6c2.3,0,3.8,0,3,2.9l-2.8,10.2h5l2.8-11.7c0.4-1.8,0.2-2.4-0.8-2.9l0.1-0.1
		c4-0.6,8.6-3.1,11.2-6.7c5.2-7,0-7.9-6-7.9h-7.5L290.8,483.7L290.8,483.7z M314.1,458.1h4.2c4,0,4.9,1.7,2.9,4.3
		c-2.1,2.8-5.8,4.6-10,4.6h-3.7L314.1,458.1L314.1,458.1z"/>
	<polygon class="st1" points="317.1,483.7 334.1,483.7 336.8,480 324.1,480 331.3,470.4 342.8,470.4 345.5,466.7 334,466.7 
		340.3,458.1 353,458.1 355.7,454.5 338.7,454.5 317.1,483.7 	"/>
	<path class="st1" d="M376.7,455c-1.6-0.7-3.7-1-5.7-1c-5.5,0-11.8,2.8-15.7,8c-6.7,9.1,7.7,7.3,2.9,13.8c-2.5,3.4-7,4.8-9.5,4.8
		c-2.2,0-4.2-0.8-5.3-1.4l-3.3,3.9c1.5,0.6,3.2,1.2,5.3,1.2c6.1,0,13-2.5,17.6-8.7c7.1-9.6-6.9-8.3-2.8-14c2.3-3.1,5.8-3.9,8.2-3.9
		c2.3,0,3.2,0.4,4.8,1.2L376.7,455L376.7,455z"/>
	<path class="st1" d="M398.6,455c-1.6-0.7-3.7-1-5.7-1c-5.5,0-11.8,2.8-15.7,8c-6.7,9.1,7.7,7.3,2.9,13.8c-2.5,3.4-7,4.8-9.5,4.8
		c-2.2,0-4.2-0.8-5.3-1.4L362,483c1.5,0.6,3.2,1.2,5.3,1.2c6.1,0,13-2.5,17.6-8.7c7.1-9.6-6.9-8.3-2.8-14c2.3-3.1,5.8-3.9,8.2-3.9
		c2.3,0,3.2,0.4,4.8,1.2L398.6,455L398.6,455z"/>
</g>
</svg>
