<svg xmlns="http://www.w3.org/2000/svg" viewBox="0 0 182.77 73.39">
  <defs>
    <style>.cls-1{fill:#fff;}</style>
  </defs>
  <title>logo_g</title>
  <g id="Layer_2" data-name="Layer 2">
    <g id="Default">
      <path class="cls-1"
            d="M170.16,57.46a4.41,4.41,0,0,0-1.88-1.92,6.27,6.27,0,0,0-3-.66,6.44,6.44,0,0,0-3,.65,4.32,4.32,0,0,0-1.89,1.89,6.5,6.5,0,0,0-.64,3h0a6.16,6.16,0,0,0,.59,2.79A4.42,4.42,0,0,0,162,65.09a4.68,4.68,0,0,0,2.49.66,4.45,4.45,0,0,0,1.63-.27,2.2,2.2,0,0,0,.46-.23c-1.32,2.37-4.4,8-4.4,8h3l4.22-7.77.18-.33.16-.33a11.67,11.67,0,0,0,.77-2.19,8.35,8.35,0,0,0,.28-2.08h0A6.58,6.58,0,0,0,170.16,57.46ZM168,60.34a3.36,3.36,0,0,1-.71,2.28,3,3,0,0,1-4.06,0,3.36,3.36,0,0,1-.71-2.28h0a3.23,3.23,0,0,1,.71-2.23,2.61,2.61,0,0,1,2-.79,2.58,2.58,0,0,1,2,.79,3.2,3.2,0,0,1,.71,2.22Z"/>
      <path class="cls-1"
            d="M117.82,57.46a4.38,4.38,0,0,0-1.89-1.92,6.25,6.25,0,0,0-3-.66,6.39,6.39,0,0,0-3,.65,4.32,4.32,0,0,0-1.89,1.89,6.49,6.49,0,0,0-.65,3h0a6.3,6.3,0,0,0,.59,2.79,4.44,4.44,0,0,0,1.67,1.86,4.63,4.63,0,0,0,2.49.66,4.4,4.4,0,0,0,1.62-.27,2,2,0,0,0,.46-.23l-4.39,8h3l4.21-7.77a2.68,2.68,0,0,0,.18-.33c.06-.11.11-.22.16-.33a11.72,11.72,0,0,0,.78-2.19,8.8,8.8,0,0,0,.27-2.08h0A6.58,6.58,0,0,0,117.82,57.46Zm-2.13,2.88a3.32,3.32,0,0,1-.72,2.28,2.95,2.95,0,0,1-4,0,3.31,3.31,0,0,1-.71-2.28h0a3.18,3.18,0,0,1,.71-2.23,3,3,0,0,1,4,0,3.15,3.15,0,0,1,.72,2.22Z"/>
      <path class="cls-1"
            d="M143.26,65.5a4.94,4.94,0,0,0-2-1.82A4.25,4.25,0,0,0,143,62.19a3.78,3.78,0,0,0,.64-2.11v-.44a4.53,4.53,0,0,0-.69-2.5,4.6,4.6,0,0,0-2-1.67,7.62,7.62,0,0,0-5.88,0,4.66,4.66,0,0,0-2,1.67,4.53,4.53,0,0,0-.69,2.5v.44a3.84,3.84,0,0,0,.63,2.09,4.15,4.15,0,0,0,1.68,1.51A4.93,4.93,0,0,0,132,68.05v.3a4.63,4.63,0,0,0,2.85,4.41,7.38,7.38,0,0,0,3.15.63,7.46,7.46,0,0,0,3.16-.63,4.86,4.86,0,0,0,2.1-1.76,4.8,4.8,0,0,0,.74-2.65v-.3A4.61,4.61,0,0,0,143.26,65.5Zm-8-5.6a2.52,2.52,0,0,1,.35-1.35,2.3,2.3,0,0,1,1-.91,3.54,3.54,0,0,1,2.94,0,2.24,2.24,0,0,1,1,.91,2.51,2.51,0,0,1,.36,1.34v.18a2.74,2.74,0,0,1-.36,1.41,2.37,2.37,0,0,1-1,.94,3.44,3.44,0,0,1-2.94,0,2.36,2.36,0,0,1-1-.94,2.64,2.64,0,0,1-.35-1.39Zm6,8.26a2.58,2.58,0,0,1-1.54,2.43,4.36,4.36,0,0,1-3.4,0,2.59,2.59,0,0,1-1.54-2.41V68a2.66,2.66,0,0,1,.41-1.47,2.55,2.55,0,0,1,1.13-1,4.3,4.3,0,0,1,3.4,0,2.67,2.67,0,0,1,1.14,1,2.74,2.74,0,0,1,.4,1.47Z"/>
      <polygon class="cls-1"
               points="93.26 73.2 90.48 73.2 90.48 57.83 87.67 59.42 87.67 56.79 90.48 55.07 93.26 55.07 93.26 73.2"/>
      <path class="cls-1"
            d="M182.08,25.1l-.34-.38a.9.9,0,0,0-1.35,0,1,1,0,0,1-.08.11c-.1.19-.21.37-.32.56s-.4.68-.61,1c-.35.6-.71,1.19-1.08,1.78-1.25,2-2.55,4-3.94,5.92-.83,1.15-1.7,2.27-2.63,3.34-.34.4-.69.8-1,1.19s-.58.61-.89.88a2.53,2.53,0,0,1-.73.49.91.91,0,0,1-.56.08c-.36-.07-.43-.36-.42-.67s0-.49,0-.74.08-.71.14-1.06a14.87,14.87,0,0,1,.71-2.87c.27-.78.59-1.55.92-2.3.62-1.42,1.32-2.79,2-4.16,1.07-2.12,2.15-4.22,3.23-6.33l.7-1.34c.14-.28.29-.55.43-.84a1.55,1.55,0,0,0,.08-.23,1.37,1.37,0,0,0,.05-.49,1.41,1.41,0,0,0-.4-.88,1.62,1.62,0,0,0-.41-.32l-.7-.35-1.45-.73-1-.52a4.1,4.1,0,0,0-1.37-.5,3.56,3.56,0,0,0-2.86.78,3.6,3.6,0,0,0-.74.91,2.53,2.53,0,0,1-.13.22h-.16a3,3,0,0,1-1.1-.43,6.75,6.75,0,0,1-.61-.48,4.67,4.67,0,0,0-.84-.55,5.9,5.9,0,0,0-1.46-.46,8.67,8.67,0,0,0-3.13-.11,12.22,12.22,0,0,0-3.25,1.1c-.7.31-1.38.64-2,1s-1.44.86-2.13,1.33a19.76,19.76,0,0,0-1.9,1.52,35.43,35.43,0,0,0-2.78,2.7,26.28,26.28,0,0,0-2.66,3.81c-.55.88-1.09,1.77-1.63,2.66l-1.71,2.85a34,34,0,0,1-2.41,3.62,14,14,0,0,1-2.09,2.2c-.42.32-1.12.75-1.62.26a.92.92,0,0,1-.27-.68,4.34,4.34,0,0,1,.21-1.13c.19-.69.39-1.37.59-2s.42-1.31.66-2,.51-1.28.8-1.91c.68-1.46,1.43-2.88,2.24-4.28A53.07,53.07,0,0,1,143,22.2l.81-1.08a2.61,2.61,0,0,0,.31-.43,1.32,1.32,0,0,0,.18-.55,1.48,1.48,0,0,0-.34-1.07,1.79,1.79,0,0,0-.53-.42l-1.26-.72-2.83-1.61-.71-.41-.6-.34a.73.73,0,0,0-.25-.08.81.81,0,0,0-.51,0,.34.34,0,0,0-.12.06l-.06,0-.85.62q-1.72,1.28-3.38,2.65a73.44,73.44,0,0,0-8,7.7l2-3.23,1-1.61.37-.61c.1-.17.21-.33.3-.51a1.34,1.34,0,0,0,.16-.55,1.53,1.53,0,0,0-.94-1.5c-.18-.08-1.6-.5-1.79-.56l-1.8-.56-.67-.2a.58.58,0,0,0-.18,0,1,1,0,0,0-.35,0,.64.64,0,0,0-.49.38l-.38-.25a.22.22,0,0,0-.21,0,.18.18,0,0,0-.09.06c-.53.56-1,1.13-1.55,1.71-.68.78-1.35,1.56-2,2.35-1.33,1.58-2.63,3.18-3.93,4.78-2.36,2.9-5.44,6.72-8,9.45A17.39,17.39,0,0,1,95.68,41.6,1.93,1.93,0,0,1,94,41.49,1.55,1.55,0,0,1,93.16,40a11.3,11.3,0,0,1,2.18-5.36,2.57,2.57,0,0,0,2.1,1.24,11.2,11.2,0,0,0,4.88-1.45,9.9,9.9,0,0,0,.87-.56c.42-.3.8-.63,1.19-1,.65-.56,1.29-1.13,1.91-1.72a52.16,52.16,0,0,0,6.76-7.71,5.61,5.61,0,0,0-.39-5.1,6.27,6.27,0,0,0-6.49-2.33,21.22,21.22,0,0,0-9.23,5c-.92.81-1.8,1.66-2.65,2.54,0,0,0,0,0,0l-.43.36-.87.81-1.28,1.25c-.85.84-1.69,1.68-2.56,2.5a68.88,68.88,0,0,1-5.43,4.67,27.88,27.88,0,0,0,2.79-4.4,12.06,12.06,0,0,0,.33-11.7,6.21,6.21,0,0,0-5-2.14,17.72,17.72,0,0,0-7.18,2C66.3,21.14,60.31,29.31,60.16,39a9.63,9.63,0,0,0,1.64,6.21,7.26,7.26,0,0,0,4.07,1.71c3.9-.13,7.42-.88,10.58-3.48,3.38-2.48,6.74-5,10.09-7.51a10.72,10.72,0,0,0,.39,4.64,9.13,9.13,0,0,0,2.39,4A10.3,10.3,0,0,0,98,47.26c3.88-.65,7.39-3.22,10.1-5.76,1-.91,3.21-3.24,4.13-4.2,1.12-1.17,3-3.09,4-4.36-1.22,2.74-2.49,5.46-3.77,8.17-.33.68-.66,1.35-1,2a3.61,3.61,0,0,0-.4,1.32,1.16,1.16,0,0,0,.23.82,1.94,1.94,0,0,0,.8.56c.39.17.79.3,1.18.45a7.74,7.74,0,0,1,2,1,.84.84,0,0,0,.79.33.9.9,0,0,0,.58-.3l.06-.1c.25-.41.48-.84.73-1.25q.8-1.36,1.62-2.7c1.11-1.78,2.25-3.53,3.44-5.26,2.38-3.46,4.91-6.78,7.61-10L127,36.58a7.2,7.2,0,0,0,1,5.85,8.37,8.37,0,0,0,4.88,3.45,9.11,9.11,0,0,0,6-.42,8.08,8.08,0,0,0,4.27-4.16A23.14,23.14,0,0,0,145,44a11.12,11.12,0,0,0,1.27,1.2,6.53,6.53,0,0,0,2,1.24,2.44,2.44,0,0,0,1.34,0,7,7,0,0,0,1.82-.71,23.8,23.8,0,0,0,3.4-2.38,11.8,11.8,0,0,0,2-1.89,10.23,10.23,0,0,0,.73-1c.15-.24.28-.5.44-.73s.15-.25.26-.15a1.57,1.57,0,0,1,.22.45,8.07,8.07,0,0,0,.86,1.55,10.26,10.26,0,0,0,2.46,2.59A20.79,20.79,0,0,0,165.26,46a8.48,8.48,0,0,0,3.18.8,5.13,5.13,0,0,0,3.75-1.53,28.57,28.57,0,0,0,2.68-2.71,16.73,16.73,0,0,0,2-3,58.47,58.47,0,0,0,3.42-6.63c1-2.3,1.68-4.68,2.43-7.06ZM99,27.71a17.9,17.9,0,0,1,1.83-2.09,21.66,21.66,0,0,1,2.12-1.84,18.3,18.3,0,0,1,2-1.35,5.8,5.8,0,0,1,1.55-.65c.47-.1.53,0,.54.09.08.23.08.67-.37,1.53a8.91,8.91,0,0,1-1.78,2.27,15.94,15.94,0,0,1-3.11,2.27A14.38,14.38,0,0,1,98,29.45,8.36,8.36,0,0,1,99,27.71ZM82,24.8a51.88,51.88,0,0,1-3.63,5.93,57.29,57.29,0,0,1-4.77,5.81,23,23,0,0,1-3.72,3.4,4,4,0,0,1-2.43.88c-.58,0-.91-.41-.92-1.24a12.56,12.56,0,0,1,.66-3.29c.35-1.15.75-2.16,1-2.91a8,8,0,0,1,1.17-2.27,37.65,37.65,0,0,1,3.3-4,30.45,30.45,0,0,1,4-3.57,20.85,20.85,0,0,1,3.21-1.9,10.36,10.36,0,0,1,2.34-1c.63-.13,1.1,0,1.1.66A9.71,9.71,0,0,1,82,24.8Zm78.81-.72c-.67.83-1.47,1.87-2.44,3.17h0c-.94,1.25-1.93,2.59-2.94,4s-2,2.7-2.91,3.84a34.29,34.29,0,0,1-2.4,2.71c-.76.75-1,.68-1,.68s-.26-.39-.06-1.26a16.41,16.41,0,0,1,.94-2.76A35.91,35.91,0,0,1,151.78,31c.71-1.25,1.49-2.47,2.3-3.63a34.82,34.82,0,0,1,2.5-3.16,11.55,11.55,0,0,1,2.41-2.1,3.59,3.59,0,0,1,1.08-.48,2,2,0,0,1,.83,0c.46.09.86.49,1.18,1.21A6.76,6.76,0,0,0,160.83,24.08Z"/>
      <path class="cls-1"
            d="M11.24,56.21c-.25,1.74-.49,3.48-.73,5.22C10.16,64,6.83,65,4.85,63.26l-2.29-2A7.21,7.21,0,0,1,1.05,52Q14.6,26.77,29.81,2.38A5.12,5.12,0,0,1,34.22,0h5.62a1.57,1.57,0,0,1,1.61,2,67.66,67.66,0,0,0-2.84,22.86L59.34,1.69A5.22,5.22,0,0,1,63.23,0h8.32a1.55,1.55,0,0,1,1.53,2.16,147.8,147.8,0,0,0-14,29.28,77.43,77.43,0,0,0-5.4,20,1.72,1.72,0,0,1-2.85.82L46.33,48a5.82,5.82,0,0,1-1.78-5.49c.24-1.1.47-2.19.71-3.29A112.25,112.25,0,0,1,60.13,11.49a203.55,203.55,0,0,0-23.58,28.2c-.46.74-.92,1.48-1.39,2.22a2.61,2.61,0,0,1-4.6-.48A18,18,0,0,1,29.44,38c-.57-2.84-.16-5.79.2-8.7.48-3.86.86-7.66,1.69-11.43C24,30.36,17.3,43.12,11.24,56.21Z"/>
    </g>
  </g>
</svg>
